<svg xmlns="http://www.w3.org/2000/svg" xmlns:xlink="http://www.w3.org/1999/xlink" xmlns:xodm="http://www.corel.com/coreldraw/odm/2003" xml:space="preserve" version="1.1" style="shape-rendering:geometricPrecision; text-rendering:geometricPrecision; image-rendering:optimizeQuality; fill-rule:evenodd; clip-rule:evenodd" viewBox="7351.11 13155.84 6101.11 1725.58">
 <defs>
  <style type="text/css">
   <![CDATA[
    .fil1 {fill:#0EB981}
    .fil0 {fill:#166192}
    .fil2 {fill:#B6F1DD}
    .fil3 {fill:white}
   ]]>
  </style>
 </defs>
 <g id="Layer_x0020_1">
  <metadata id="CorelCorpID_0Corel-Layer"/>
  <g id="_105553246210336">
   <path class="fil0" d="M7515.99 13931.29c113,-32.06 158.5,133.86 54.24,172.76 -55.8,20.82 -108.24,-11.17 -120.04,-52.42 -21.08,-73.75 13.29,-105.45 65.8,-120.34zm89.2 -87.57c42.9,-235.92 220.25,-408.11 382.86,-499.96 158.07,-89.3 367.97,-113.02 552.52,-66.9 28.55,7.14 63.02,13.58 78.59,31.87 22.81,26.82 12.46,44.2 48.93,61.56 65.49,31.16 133.07,-19.61 126.54,-88.32 -9.92,-104.46 -126.71,-70.72 -138.23,-71.73 -33.18,-2.91 -119.69,-35.58 -175.29,-44.08 -194.26,-29.69 -376.41,5.57 -541.82,94.45 -73.05,39.26 -195.49,129.22 -244.82,195.79 -64.73,87.32 -117.27,152.88 -160.16,280.29 -45.49,135.16 0.57,61.8 -96.61,123.45 -40.13,25.46 -78.12,74.79 -85,134.37 -12.17,105.35 47.22,167.43 126.5,200.58 41.36,17.3 29.23,18.65 42.52,66.56 158.07,569.73 890.94,830.34 1377.88,418.86 48.89,18.12 167.94,126.74 232.64,163.92 232.77,133.78 429.06,-181.01 246.46,-331l-228.34 -161.9c27.02,-154.07 95.84,-240.55 43.81,-499.97 -13.78,-68.71 0.79,-46.42 5.1,-96.41 5.88,-68.37 -65.33,-117.54 -128.8,-82.81 -60.71,33.22 -53.09,116.49 -7.22,148.73 41.13,28.91 31.71,14.39 41.81,76.72 37.16,229.38 -22.23,317.26 -75.48,476.24 88.74,109.29 411.12,211.09 301.43,363.61 -22.22,30.9 -76.21,52.19 -126.96,34.72l-304.14 -215.66c-75.19,43.73 -115.56,130.06 -332.77,195.84 -156.24,47.32 -309.06,37.82 -460.34,-8.74 -228.91,-70.44 -455.85,-296.49 -501.4,-550.95 164.37,-85.86 160.44,-261.68 -0.21,-349.13z"/>
   <path class="fil1" d="M11504.59 14115.98l138.75 0.28c1.01,-131.76 0.4,-263.07 0.37,-394.17 -0.04,-163.61 -9.5,-222.55 168.75,-222.16 271.82,0.59 123.58,199.03 166.51,614.59l135.25 3.18c13.98,-97.47 3.17,-281 3.34,-387.14 0.27,-161.5 -18.15,-229.7 160.52,-230.86 180.72,-1.18 171.86,57.03 171.81,222.39 -0.03,115.96 -9.67,283.99 1.99,393.67l136.49 1.78c11.73,-92.17 2.61,-246.34 2.61,-344.65 0,-167.69 26.3,-410.16 -278.73,-413.04 -50.81,-0.48 -108.64,-1.98 -156.07,11.8 -58.44,16.97 -76.78,45.73 -115.04,60.79 -71.66,-67.77 -136.04,-74.77 -262.9,-72.51 -296.74,5.28 -274.11,235.37 -274.11,404.5 0,116.94 -1.34,234.75 0.46,351.55z"/>
   <path class="fil1" d="M8260.85 14026.89c-18.78,-116.32 151.19,-144.92 174.39,-41.32 28.98,129.41 -156.73,150.7 -174.39,41.32zm-96.1 -70.94c0.36,119.75 32.34,103.74 -128.47,248.69 -110.46,99.57 -64.85,23.86 -119.41,75.23 -46.06,43.38 -27.82,116.08 15.86,138.73 29.57,15.34 41.54,7.05 70.33,22.09 43.61,22.77 69.6,68.78 200.81,104.38 119.51,32.43 240.24,20.8 347.53,-19.87 52.98,-20.08 86.12,-43.44 123.63,-71.03 49.31,-36.28 94.02,-14.4 122.12,-73.21 54.45,-113.94 -134.2,-199.55 -165.55,-39.16 -9.09,46.5 -31.43,57.8 -106.04,89.67 -178.51,76.25 -325.35,27.55 -461.38,-66.71 2.66,-71.93 -13.33,-39.37 64.61,-118.39 32.28,-32.73 62.32,-60.07 91.43,-92.81 73.04,24.73 107.91,72.69 210.9,22.89 194.77,-94.19 98.16,-393.39 -121.22,-349.62 -49.65,9.9 -63.97,36.46 -95.79,45.18 -37.33,-29.8 -59.1,-54.73 -89.5,-85.81 -38.26,-39.12 -58.56,-36.74 -60.1,-113.93 128.67,-89.22 253.01,-137.37 430.14,-78.09 32.49,10.88 109.58,47.43 125.86,69.24 33.42,44.79 -4.55,91.78 71.72,113.98 105.23,30.62 184.75,-127.88 28.74,-171.6 -61.32,-17.18 -175.32,-160.69 -439.14,-129.5 -127.68,15.09 -185.54,57.8 -268.17,113.06 -47.94,32.06 -95,10.62 -116.55,69.88 -24.4,67.07 17.63,106.28 64.74,120.45 50.23,15.1 49.73,31.02 104.07,82.06 37.87,35.56 66.92,71.2 98.83,94.2z"/>
   <path class="fil1" d="M12840.35 13761.19c-25.3,-249.49 9.61,-261.57 233.62,-261.24 232.73,0.35 248.59,14.67 232.54,261.46l-466.16 -0.22zm-140.65 354.74l138.31 0.68 0.8 -212.39 466.48 -0.85 2.54 213.22 138.41 0c1.1,-126.95 15.56,-453.44 -4.91,-559.26 -16.07,-83.07 -60.79,-128.89 -116.58,-162.44 -72.92,-43.85 -156.45,-35.21 -250.78,-34.98 -140,0.35 -323.61,-6.85 -367.84,188.95 -21.42,94.87 -7.29,447.22 -6.43,567.07z"/>
   <path class="fil1" d="M11393.75 13700.4l-382.85 -0.73 -4.41 141.11 247.82 -0.08c3.22,169.22 -121.5,136.74 -271.61,136.92 -197.33,0.25 -189.12,-45.33 -189.11,-230.13 0.01,-175.61 -25.42,-247.8 172.16,-247.46 192.12,0.33 265.64,-28.43 283.46,133.47l135.89 1.36c13.2,-115.96 -51.95,-202.27 -118.04,-239.61 -90.02,-50.85 -222.57,-35.76 -335.47,-35.11 -320.83,1.86 -277.69,272.11 -277.96,455.11 -0.49,329.32 217.33,301.79 430.71,302.17 266.09,0.48 344.93,-141.49 309.41,-417.02z"/>
   <path class="fil1" d="M9564.89 13980.6l-0.68 134c71.34,11.65 229.91,2.79 309.36,2.78 99.75,-0.01 207.5,10.8 291.33,-27.67 171.1,-78.54 180.67,-300.2 8.92,-388.63 -132.93,-68.45 -531.37,32.62 -502.17,-129.5 23.47,-130.28 385.18,-42.88 569.65,-74.48l1.14 -134.48c-78.42,-11.24 -224.86,-2.72 -309.6,-2.72 -99.61,0 -207,-5.8 -284.84,35.06 -164.11,86.17 -154.37,316.81 20.53,388.77 129.12,53.12 347.54,0 435.45,37.96 34.83,15.04 69.8,52.5 43.53,106.02 -47.62,97.04 -450.74,30.14 -582.62,52.89z"/>
   <path class="fil0" d="M12292.78 14336.53c118.33,-1.37 227.57,2.65 227.63,130.62 0.07,128.46 -108.73,132.2 -227.8,131.21l0.17 -261.83zm-98.72 342.14c203.56,9.55 426.21,9.16 425.13,-211.5 -1.08,-221.17 -218.94,-218.24 -425.28,-211.37l0.15 422.87z"/>
   <polygon class="fil1" points="10406.15,14115.4 10545.59,14116.64 10545.72,13361.71 10406.56,13361.35 "/>
   <path class="fil0" d="M11426.7 14335.49c75.75,-0.95 163.15,-8.99 165.27,72.53 2.22,85.14 -92.06,75.83 -168.67,74.78l3.4 -147.31zm184 207.87c36.6,-32.81 70.68,-47.64 79.02,-109.78 7.91,-58.91 -11.71,-108.31 -46.39,-136 -59.31,-47.35 -225.11,-56.48 -318.42,-38.55l0.21 418.92 98.29 1.42 0.99 -118.06 90.81 0.67c23.59,39.72 55.24,76.93 76.96,117.13l104.42 -0.05c-22.45,-48.15 -70.3,-92.7 -85.89,-135.7z"/>
   <polygon class="fil0" points="13218.96,14334.03 13438.85,14334.02 13438.51,14255.03 13118.1,14257.4 13118.68,14679.16 13446.37,14679.48 13446.42,14600.72 13216.9,14600.61 13217.32,14502.31 13413.46,14502.6 13411.41,14425.73 13215.82,14425.55 "/>
   <polygon class="fil0" points="10594.95,14334.07 10815.36,14333.78 10815.23,14255.01 10494.85,14258.75 10495.04,14678.96 10822.93,14679.35 10823.34,14600.63 10593.66,14600.57 10594.07,14502.56 10789.48,14502.09 10787.53,14425.96 10592.74,14425.4 "/>
   <path class="fil0" d="M9848.17 14678.16c17.91,-22.03 173.57,-380.33 185.81,-422.9l-92.67 1.69c-47.83,60.78 -87.85,236.91 -136.08,294.76l-124.87 -296.61 -107.33 1.28 180.68 423.36 94.46 -1.58z"/>
   <path class="fil0" d="M8760.66 13840.63c47.82,154.19 48.02,202.07 0.12,355.6l78.31 57.83c71.51,-171.58 72.02,-300.44 -0.18,-470.95l-72.73 53.42c-1.28,0.89 -3.81,2.57 -5.52,4.1z"/>
   <path class="fil0" d="M7859.35 14252.78l76.38 -56.55c-48.64,-158.9 -46.83,-197.63 0.14,-355.6l-76.59 -57.26c-68.57,128.59 -73.75,341.29 0.07,469.41z"/>
   <path class="fil2" d="M7515.99 13931.29c-52.51,14.89 -86.88,46.59 -65.8,120.34 11.8,41.25 64.24,73.24 120.04,52.42 104.26,-38.9 58.76,-204.82 -54.24,-172.76z"/>
   <path class="fil3" d="M8260.85 14026.89c17.66,109.38 203.37,88.09 174.39,-41.32 -23.2,-103.6 -193.17,-75 -174.39,41.32z"/>
  </g>
 </g>
</svg>