<svg xmlns="http://www.w3.org/2000/svg" xmlns:xlink="http://www.w3.org/1999/xlink" xmlns:xodm="http://www.corel.com/coreldraw/odm/2003" xml:space="preserve" version="1.1" style="shape-rendering:geometricPrecision; text-rendering:geometricPrecision; image-rendering:optimizeQuality; fill-rule:evenodd; clip-rule:evenodd" viewBox="7351.11 13155.84 2099.39 1725.58">
 <defs>
  <style type="text/css">
   <![CDATA[
    .fil1 {fill:#0EB981}
    .fil0 {fill:#166192}
    .fil2 {fill:#B6F1DD}
    .fil3 {fill:white}
   ]]>
  </style>
 </defs>
 <g id="Layer_x0020_1">
  <metadata id="CorelCorpID_0Corel-Layer"/>
  <path class="fil0" d="M7515.99 13931.29c113,-32.06 158.5,133.86 54.24,172.76 -55.8,20.82 -108.24,-11.17 -120.04,-52.42 -21.08,-73.75 13.29,-105.45 65.8,-120.34zm89.2 -87.57c42.9,-235.92 220.25,-408.11 382.86,-499.96 158.07,-89.3 367.97,-113.02 552.52,-66.9 28.55,7.14 63.02,13.58 78.59,31.87 22.81,26.82 12.46,44.2 48.93,61.56 65.49,31.16 133.07,-19.61 126.54,-88.32 -9.92,-104.46 -126.71,-70.72 -138.23,-71.73 -33.18,-2.91 -119.69,-35.58 -175.29,-44.08 -194.26,-29.69 -376.41,5.57 -541.82,94.45 -73.05,39.26 -195.49,129.22 -244.82,195.79 -64.73,87.32 -117.27,152.88 -160.16,280.29 -45.49,135.16 0.57,61.8 -96.61,123.45 -40.13,25.46 -78.12,74.79 -85,134.37 -12.17,105.35 47.22,167.43 126.5,200.58 41.36,17.3 29.23,18.65 42.52,66.56 158.07,569.73 890.94,830.34 1377.88,418.86 48.89,18.12 167.94,126.74 232.64,163.92 232.77,133.78 429.06,-181.01 246.46,-331l-228.34 -161.9c27.02,-154.07 95.84,-240.55 43.81,-499.97 -13.78,-68.71 0.79,-46.42 5.1,-96.41 5.88,-68.37 -65.33,-117.54 -128.8,-82.81 -60.71,33.22 -53.09,116.49 -7.22,148.73 41.13,28.91 31.71,14.39 41.81,76.72 37.16,229.38 -22.23,317.26 -75.48,476.24 88.74,109.29 411.12,211.09 301.43,363.61 -22.22,30.9 -76.21,52.19 -126.96,34.72l-304.14 -215.66c-75.19,43.73 -115.56,130.06 -332.77,195.84 -156.24,47.32 -309.06,37.82 -460.34,-8.74 -228.91,-70.44 -455.85,-296.49 -501.4,-550.95 164.37,-85.86 160.44,-261.68 -0.21,-349.13z"/>
  <path class="fil1" d="M8260.85 14026.89c-18.78,-116.32 151.19,-144.92 174.39,-41.32 28.98,129.41 -156.73,150.7 -174.39,41.32zm-96.1 -70.94c0.36,119.75 32.34,103.74 -128.47,248.69 -110.46,99.57 -64.85,23.86 -119.41,75.23 -46.06,43.38 -27.82,116.08 15.86,138.73 29.57,15.34 41.54,7.05 70.33,22.09 43.61,22.77 69.6,68.78 200.81,104.38 119.51,32.43 240.24,20.8 347.53,-19.87 52.98,-20.08 86.12,-43.44 123.63,-71.03 49.31,-36.28 94.02,-14.4 122.12,-73.21 54.45,-113.94 -134.2,-199.55 -165.55,-39.16 -9.09,46.5 -31.43,57.8 -106.04,89.67 -178.51,76.25 -325.35,27.55 -461.38,-66.71 2.66,-71.93 -13.33,-39.37 64.61,-118.39 32.28,-32.73 62.32,-60.07 91.43,-92.81 73.04,24.73 107.91,72.69 210.9,22.89 194.77,-94.19 98.16,-393.39 -121.22,-349.62 -49.65,9.9 -63.97,36.46 -95.79,45.18 -37.33,-29.8 -59.1,-54.73 -89.5,-85.81 -38.26,-39.12 -58.56,-36.74 -60.1,-113.93 128.67,-89.22 253.01,-137.37 430.14,-78.09 32.49,10.88 109.58,47.43 125.86,69.24 33.42,44.79 -4.55,91.78 71.72,113.98 105.23,30.62 184.75,-127.88 28.74,-171.6 -61.32,-17.18 -175.32,-160.69 -439.14,-129.5 -127.68,15.09 -185.54,57.8 -268.17,113.06 -47.94,32.06 -95,10.62 -116.55,69.88 -24.4,67.07 17.63,106.28 64.74,120.45 50.23,15.1 49.73,31.02 104.07,82.06 37.87,35.56 66.92,71.2 98.83,94.2z"/>
  <path class="fil0" d="M8760.66 13840.63c47.82,154.19 48.02,202.07 0.12,355.6l78.31 57.83c71.51,-171.58 72.02,-300.44 -0.18,-470.95l-72.73 53.42c-1.28,0.89 -3.81,2.57 -5.52,4.1z"/>
  <path class="fil0" d="M7859.35 14252.78l76.38 -56.55c-48.64,-158.9 -46.83,-197.63 0.14,-355.6l-76.59 -57.26c-68.57,128.59 -73.75,341.29 0.07,469.41z"/>
  <path class="fil2" d="M7515.99 13931.29c-52.51,14.89 -86.88,46.59 -65.8,120.34 11.8,41.25 64.24,73.24 120.04,52.42 104.26,-38.9 58.76,-204.82 -54.24,-172.76z"/>
  <path class="fil3" d="M8260.85 14026.89c17.66,109.38 203.37,88.09 174.39,-41.32 -23.2,-103.6 -193.17,-75 -174.39,41.32z"/>
 </g>
</svg>